<?xml version="1.0" encoding="utf-8"?>
<!-- Generator: Adobe Illustrator 25.2.0, SVG Export Plug-In . SVG Version: 6.00 Build 0)  -->
<svg version="1.1" xmlns="http://www.w3.org/2000/svg" xmlns:xlink="http://www.w3.org/1999/xlink" x="0px" y="0px"
	 viewBox="0 0 1200 1200" style="enable-background:new 0 0 1200 1200;" xml:space="preserve">
<style type="text/css">
	.st0{fill:#266198;}
</style>
<g id="Background">
</g>
<g id="Graphic_Elements">
	<g>
		<g>
			<g>
				<path class="st0" d="M1175.12,367.86c-0.01,0-0.03,0-0.04,0c7.5,7.5,15,15,22.5,22.5c2.33-56.73-11.8-113.53-39.07-163.23
					c-26.53-48.35-65.73-89.61-112.15-119.29c-47.87-30.62-103.88-47.92-160.63-50.12C824,55.32,763.16,74.85,712.13,109.18
					c-50.15,33.74-92.31,79.86-121.63,132.72c-3.42,6.16-6.63,12.42-9.68,18.77c12.95,0,25.9,0,38.86,0
					c-26.03-54.27-65.56-101.71-113.15-138.37c-48.75-37.55-107.8-61.88-169.63-64.59C279.66,55.2,221.54,70,171.48,97.53
					c-48.38,26.61-89.66,65.89-119.31,112.41C22.24,256.89,5.01,311.73,2.83,367.35c-0.3,7.67-0.22,15.33,0.1,23
					c7.5-7.5,15-15,22.5-22.5c-0.01,0-0.03,0-0.04,0c-12.95,0-21.43,10.36-22.5,22.5c-1.95,22.01,1.39,45.08,4.81,66.71
					c8.75,55.35,28.54,108.88,54.21,158.53c39.21,75.85,94.13,140.86,154.6,200.57c46.7,46.11,95.3,90.26,144.85,133.28
					c63.72,55.32,128.86,108.99,194.24,162.32c9.58,7.81,19.16,15.62,28.76,23.41c10.2,8.29,21.54,8.36,31.82,0
					c68.04-55.31,135.91-110.87,202.45-168c50.9-43.69,100.95-88.4,149.12-135.09c29.43-28.53,58.53-57.44,84.83-88.93
					c27.24-32.62,52.17-67.3,73.32-104.2c29.68-51.77,52.86-108.36,64.32-167.07c5.09-26.05,9.34-53.83,7.5-80.52
					c-0.02-0.34-0.04-0.68-0.07-1.02C1196.59,378.66,1188.01,367.28,1175.12,367.86c-11.3,0.51-23.61,9.94-22.5,22.5
					c0.47,5.36,0.39,10.81,0.26,16.18c-0.15,6.3-0.53,12.6-1.08,18.89c-0.35,3.96-0.76,7.92-1.24,11.86
					c-0.13,1.04-0.26,2.07-0.39,3.11c-0.54,4.38,0.93-6.42,0.26-1.98c-0.36,2.37-0.69,4.75-1.07,7.11
					c-3.69,23.19-9.36,46.05-16.55,68.39c-4.43,13.76-9.51,27.27-14.98,40.65c-1.45,3.54,0.43-1.11,0.64-1.48
					c-0.43,0.81-0.75,1.76-1.11,2.61c-0.76,1.76-1.52,3.51-2.29,5.26c-1.78,4.03-3.61,8.04-5.49,12.03
					c-3.48,7.41-7.12,14.74-10.91,21.99c-8.62,16.51-18,32.62-28.04,48.31c-5.36,8.37-10.91,16.62-16.63,24.75
					c-2.88,4.1-5.81,8.16-8.78,12.2c-1.51,2.05-3.04,4.1-4.57,6.14c-0.77,1.03-1.55,2.06-2.33,3.08c-0.28,0.37-4.24,5.44-1.24,1.63
					c-26.8,34.09-56.46,65.28-87.33,95.68c-46.53,45.81-94.92,89.68-144.24,132.46c-63.13,54.76-127.65,107.91-192.4,160.73
					c-9.58,7.81-19.16,15.62-28.76,23.41c10.61,0,21.21,0,31.82,0C548.77,1048.58,481.55,993.55,415.62,937
					c-50.67-43.46-100.53-87.91-148.53-134.31c-28.82-27.86-57.4-56.05-83.35-86.64c-3.51-4.14-6.98-8.32-10.41-12.53
					c-1.68-2.07-3.35-4.15-5.01-6.23c-0.82-1.03-1.64-2.07-2.46-3.11c-0.33-0.42-3.61-4.62-1.86-2.37c1.67,2.14-0.84-1.09-1.21-1.59
					c-0.78-1.03-1.56-2.05-2.34-3.08c-1.54-2.04-3.07-4.09-4.59-6.14c-3.16-4.29-6.28-8.61-9.35-12.96
					c-11.31-16.07-21.94-32.61-31.78-49.62c-8.69-15.02-16.76-30.4-24.12-46.11c-1.66-3.55-3.29-7.11-4.88-10.69
					c-0.78-1.75-1.55-3.51-2.31-5.27c-0.38-0.87-0.74-1.74-1.12-2.61c-1.13-2.6,1.9,4.6,0.36,0.83c-2.9-7.11-5.74-14.24-8.37-21.45
					c-8.66-23.67-15.65-47.98-20.5-72.71c-0.97-4.94-1.86-9.9-2.65-14.88c-0.36-2.23-0.68-4.47-1.01-6.71
					c-0.71-4.86,0.68,5.36,0.26,1.96c-0.16-1.29-0.33-2.59-0.49-3.88c-0.88-7.32-1.55-14.68-1.95-22.04
					c-0.43-7.86-0.29-15.63-0.15-23.49c0.01-0.34,0.04-0.68,0.07-1.02c-7.5,7.5-15,15-22.5,22.5c0.01,0,0.03,0,0.04,0
					c11.79,0,23-10.31,22.5-22.5c-0.57-13.99-0.2-27.95,1.27-41.88c0.17-1.56,0.36-3.12,0.53-4.68c0.61-5.47-0.82,5.21,0.03-0.23
					c0.48-3.09,0.95-6.17,1.5-9.25c1.14-6.38,2.5-12.72,4.06-19.01c3.05-12.25,6.9-24.3,11.51-36.05c0.56-1.43,1.15-2.86,1.72-4.29
					c1.99-5-2.07,4.62,0.13-0.3c1.25-2.81,2.49-5.63,3.81-8.41c2.84-6.02,5.88-11.96,9.12-17.78c5.97-10.74,12.58-21.12,19.8-31.06
					c0.9-1.24,1.81-2.48,2.73-3.71c0.77-1.02,3.45-5.39,0.21-0.33c1.62-2.54,3.85-4.86,5.78-7.18c4.25-5.13,8.67-10.12,13.24-14.96
					c8.46-8.95,17.45-17.4,26.91-25.28c2.29-1.9,4.63-4.3,7.2-5.82c-5.03,2.97-0.76,0.59,0.34-0.24c1.23-0.93,2.48-1.85,3.72-2.76
					c5.42-3.95,10.97-7.72,16.63-11.3c10.51-6.64,21.42-12.65,32.66-17.96c2.83-1.33,5.68-2.59,8.53-3.87
					c4.97-2.22-4.67,1.85,0.39-0.17c1.46-0.58,2.9-1.18,4.36-1.75c6.35-2.49,12.78-4.75,19.28-6.8c12.14-3.82,24.52-6.85,37.05-9.08
					c3.17-0.56,6.35-1.04,9.53-1.53c5.56-0.85-5.18,0.56,0.42-0.05c1.61-0.18,3.22-0.38,4.83-0.55c7.04-0.74,14.11-1.23,21.19-1.46
					c6.24-0.21,12.49-0.23,18.74,0c3.51,0.13,7.01,0.33,10.51,0.61c1.74,0.14,3.48,0.3,5.22,0.48c1.18,0.12,9,0.97,2.66,0.23
					c14.22,1.65,28.41,5.21,42.04,9.52c6.01,1.9,11.95,4.01,17.81,6.32c1.59,0.63,3.23,1.21,4.78,1.93
					c-5.25-2.46,0.02,0.04,0.94,0.44c3.66,1.63,7.29,3.33,10.89,5.11c12.86,6.36,25.25,13.65,37.1,21.72
					c3.33,2.26,6.61,4.59,9.85,6.97c0.93,0.68,1.85,1.37,2.77,2.06c0.92,0.69,1.83,1.39,2.75,2.08c-2.28-1.76-2.44-1.88-0.47-0.34
					c6.25,5.07,12.43,10.2,18.39,15.61c11.85,10.77,22.97,22.34,33.32,34.56c2.2,2.6,4.36,5.23,6.49,7.89
					c1.06,1.32,2.15,2.64,3.16,4c-3.53-4.79,0.95,1.31,1.61,2.19c4.67,6.29,9.15,12.74,13.42,19.32
					c8.34,12.86,15.83,26.23,22.46,40.05c7.05,14.7,31.8,14.7,38.86,0c5.91-12.31,12.5-24.28,19.77-35.84
					c3.57-5.67,7.29-11.24,11.16-16.7c1.95-2.75,3.94-5.48,5.96-8.18c0.59-0.78,3.99-5.44,0.6-0.83c1.17-1.59,2.45-3.12,3.69-4.66
					c8.76-10.89,18.12-21.29,28.05-31.13c4.89-4.85,9.92-9.55,15.08-14.11c2.58-2.28,5.2-4.53,7.85-6.73c1.33-1.1,2.66-2.2,4-3.28
					c0.84-0.68,6.63-5.64,2.22-1.81c10.26-8.89,22.6-16.24,34.3-23.05c5.94-3.46,12-6.73,18.17-9.78c3.08-1.52,6.19-2.99,9.32-4.41
					c1.55-0.7,3.12-1.49,4.72-2.08c-5.66,2.07,1.52-0.59,2.57-1c12.8-5.04,25.99-9.14,39.42-12.14c6.73-1.51,13.58-2.9,20.43-3.69
					c-6.08,0.71-0.14,0.07,0.93-0.05c1.73-0.19,3.47-0.36,5.21-0.51c4.08-0.36,8.16-0.61,12.25-0.76
					c13.31-0.49,26.68,0.07,39.93,1.47c1.61,0.17,3.22,0.37,4.83,0.55c5.6,0.61-5.13-0.8,0.42,0.05c3.18,0.49,6.36,0.97,9.53,1.53
					c6.81,1.21,13.58,2.66,20.29,4.34c12.24,3.07,24.29,6.93,36.04,11.54c1.46,0.57,2.91,1.17,4.36,1.75
					c5.06,2.02-4.58-2.06,0.39,0.17c2.85,1.27,5.71,2.53,8.53,3.87c6.1,2.88,12.1,5.96,17.99,9.24
					c10.83,6.03,21.28,12.72,31.3,20.01c1.25,0.91,2.49,1.83,3.72,2.76c1.1,0.83,5.38,3.21,0.34,0.24c2.56,1.51,4.91,3.91,7.2,5.82
					c5.13,4.27,10.12,8.71,14.96,13.31c8.92,8.47,17.34,17.47,25.19,26.94c1.92,2.32,4.15,4.64,5.78,7.18
					c-3.24-5.06-0.55-0.69,0.21,0.33c0.92,1.23,1.83,2.47,2.73,3.71c3.91,5.39,7.64,10.9,11.19,16.53
					c7.38,11.7,13.95,23.9,19.66,36.5c0.63,1.4,1.24,2.81,1.87,4.22c0.97,2.26,0.82,1.88-0.46-1.12c0.39,0.95,0.78,1.9,1.17,2.85
					c1.35,3.34,2.63,6.69,3.86,10.08c2.45,6.78,4.66,13.65,6.61,20.6c1.82,6.48,3.41,13.01,4.77,19.6c0.74,3.56,1.4,7.14,2,10.72
					c0.26,1.54,0.5,3.08,0.74,4.63c0.16,1.03,0.3,2.06,0.45,3.1c-0.45-3.4-0.51-3.84-0.19-1.32c1.73,15.51,2.45,30.95,1.81,46.55
					c-0.5,12.16,10.71,22.5,22.5,22.5c0.01,0,0.03,0,0.04,0c11.77,0,23.04-10.35,22.5-22.5
					C1197.07,378.17,1187.73,367.86,1175.12,367.86z"/>
			</g>
		</g>
	</g>
</g>
<g id="Text">
</g>
</svg>
