<?xml version="1.0" encoding="utf-8"?>
<!-- Generator: Adobe Illustrator 25.2.0, SVG Export Plug-In . SVG Version: 6.00 Build 0)  -->
<svg version="1.1" id="Layer_1" xmlns="http://www.w3.org/2000/svg" xmlns:xlink="http://www.w3.org/1999/xlink" x="0px" y="0px"
	 viewBox="0 0 360 360" style="enable-background:new 0 0 360 360;" xml:space="preserve">
<style type="text/css">
	.st0{fill:#FFFFFF;stroke:#000000;stroke-miterlimit:10;}
	.st1{fill:none;stroke:#266198;stroke-width:12;stroke-miterlimit:10;}
	.st2{fill:#266198;}
</style>
<g>
	<path class="st0" d="M115.52,120.65"/>
	<g id="oqrN7Q_1_">
		<circle class="st1" cx="180.22" cy="180.78" r="173.16"/>
		<ellipse class="st2" cx="137.55" cy="137.88" rx="15.11" ry="19.6"/>
		<ellipse class="st2" cx="213.18" cy="137.88" rx="15.11" ry="19.6"/>
		<g>
			<g>
				<path class="st2" d="M112.16,204.98c12.06,11.32,29.37,18.24,45.33,21.36c30.43,5.95,65.65,0.6,88.74-21.37
					c5.61-5.33-2.89-13.81-8.49-8.49c-20.5,19.5-53.09,23.71-79.88,17.69c-9.84-2.21-19.27-5.85-27.92-11.05
					c-2.57-1.54-5.07-3.2-7.44-5.03c1.08,0.83-0.85-0.73-1.18-1c-0.23-0.19-0.46-0.4-0.67-0.6
					C115.01,191.21,106.51,199.68,112.16,204.98L112.16,204.98z"/>
			</g>
		</g>
	</g>
</g>
</svg>
